<?xml version="1.0" encoding="utf-8"?>
<!-- Generator: Adobe Illustrator 19.0.1, SVG Export Plug-In . SVG Version: 6.00 Build 0)  -->
<svg version="1.1" id="Layer_1" xmlns="http://www.w3.org/2000/svg" xmlns:xlink="http://www.w3.org/1999/xlink" x="0px" y="0px"
	 viewBox="0 0 100 100" style="enable-background:new 0 0 100 100;" xml:space="preserve">
<style type="text/css">
	.st0{fill:#47B22D;}
</style>
<g>
	<path class="st0" d="M76.6,61.5c-4.9,0-9.3,2.3-12.1,5.9L38.2,54c0.3-1.3,0.6-2.6,0.6-4c0-1.5-0.3-3-0.7-4.3l26.2-13.4
		c2.8,3.8,7.3,6.2,12.3,6.2c8.6,0,15.5-6.9,15.5-15.5c0-8.6-6.9-15.5-15.5-15.5c-8.5,0-15.5,6.9-15.5,15.5c0,1.4,0.2,2.7,0.6,4
		L35.5,40.4c-2.8-3.6-7.2-5.9-12.1-5.9c-8.6,0-15.5,6.9-15.5,15.5c0,8.6,6.9,15.5,15.5,15.5c5.1,0,9.5-2.5,12.3-6.2l26.2,13.4
		c-0.4,1.4-0.7,2.8-0.7,4.4c0,8.6,6.9,15.5,15.5,15.5c8.6,0,15.5-6.9,15.5-15.5C92.1,68.5,85.2,61.5,76.6,61.5L76.6,61.5z
		 M76.6,61.5"/>
</g>
</svg>
