<?xml version="1.0" encoding="utf-8"?>
<!-- Generator: Adobe Illustrator 19.0.1, SVG Export Plug-In . SVG Version: 6.00 Build 0)  -->
<svg version="1.1" id="Layer_1" xmlns="http://www.w3.org/2000/svg" xmlns:xlink="http://www.w3.org/1999/xlink" x="0px" y="0px"
	 viewBox="0 0 100 100" style="enable-background:new 0 0 100 100;" xml:space="preserve">
<style type="text/css">
	.st0{fill:#D10505;}
</style>
<g>
	<path class="st0" d="M76.9,61.6c-5,0-9.3,2.4-12.2,6L38.1,54c0.3-1.3,0.6-2.6,0.6-4c0-1.5-0.3-3-0.7-4.4l26.4-13.5
		c2.9,3.8,7.3,6.3,12.4,6.3c8.6,0,15.6-7,15.6-15.6c0-8.6-7-15.6-15.6-15.6c-8.6,0-15.6,7-15.6,15.6c0,1.4,0.2,2.7,0.6,4L35.3,40.4
		c-2.9-3.6-7.2-6-12.2-6c-8.6,0-15.6,7-15.6,15.6c0,8.6,7,15.6,15.6,15.6c5.1,0,9.6-2.5,12.4-6.3L62,72.8c-0.4,1.4-0.7,2.9-0.7,4.4
		c0,8.6,7,15.6,15.6,15.6c8.6,0,15.6-7,15.6-15.6C92.5,68.6,85.5,61.6,76.9,61.6L76.9,61.6z M76.9,61.6"/>
</g>
</svg>
